<svg width="16" height="16" viewBox="0 0 16 16" fill="currentColor" xmlns="http://www.w3.org/2000/svg">
<rect x="15.4246" y="1.28125" width="20" height="1" transform="rotate(135 15.4246 1.28125)" fill="#6C707E"/>
<path d="M7.69718 5.48151C7.69918 5.45568 7.7002 5.42958 7.7002 5.40323C7.7002 4.85095 7.25249 4.40323 6.7002 4.40323H3.9002C3.34792 4.40323 2.9002 4.85095 2.9002 5.40323C2.9002 5.95552 3.34792 6.40323 3.9002 6.40323H6.7002C6.72655 6.40323 6.75265 6.40221 6.77849 6.40021L7.69718 5.48151Z"  fill="#6C707E"/>
<path d="M3.94413 9.23457C3.66324 8.92194 3.20311 8.80943 2.79746 8.98791C2.29195 9.21034 2.06246 9.80045 2.28489 10.306L2.28539 10.3071L2.28592 10.3083L2.28706 10.3109L2.28969 10.3167L2.29632 10.3312C2.30136 10.3421 2.30764 10.3553 2.31523 10.3708C2.33041 10.4018 2.35082 10.4419 2.3769 10.4897C2.40726 10.5453 2.44543 10.6117 2.49208 10.6866L3.94413 9.23457Z"  fill="#6C707E"/>
<path fill-rule="evenodd" clip-rule="evenodd" d="M3.46856 11.8315C3.50035 11.8597 3.53289 11.8879 3.56618 11.9161C4.47546 12.6867 5.90206 13.4032 8.0002 13.4032C10.0983 13.4032 11.5249 12.6867 12.4342 11.9161C12.8814 11.5372 13.1923 11.155 13.3949 10.8599C13.4964 10.7121 13.5714 10.5851 13.6235 10.4897C13.6496 10.4419 13.67 10.4018 13.6852 10.3708C13.6928 10.3553 13.699 10.3421 13.7041 10.3312L13.7107 10.3167L13.7133 10.3109L13.7145 10.3083L13.715 10.3071L13.7155 10.306C13.9379 9.80045 13.7085 9.21034 13.2029 8.98791C12.7009 8.76699 12.1153 8.99188 11.8895 9.49025L11.8887 9.49177C11.886 9.49739 11.8791 9.51105 11.8679 9.53162C11.8454 9.57288 11.8056 9.6412 11.7462 9.72779C11.6269 9.90146 11.4315 10.1443 11.1412 10.3903C10.5755 10.8698 9.60206 11.4032 8.0002 11.4032C6.42394 11.4032 5.45622 10.8867 4.88666 10.4134L3.46856 11.8315ZM11.8895 9.49025C11.8881 9.49329 11.8867 9.49634 11.8854 9.49941L11.8858 9.49838L11.8867 9.49649L11.8895 9.49025Z" fill="#6C707E"/>
<path d="M10.0002 5.29981V6.40323C10.0002 6.95552 10.4479 7.40323 11.0002 7.40323C11.5525 7.40323 12.0002 6.95552 12.0002 6.40323V3.60323C12.0002 3.51066 11.9876 3.42102 11.9641 3.33594L10.0002 5.29981Z"  fill="#6C707E"/>
</svg>
