<svg width="16" height="16" viewBox="0 0 16 16" xmlns="http://www.w3.org/2000/svg">
	<defs>
		<clipPath id="dicsussion-icon">
			<path fill-rule="evenodd" clip-rule="evenodd"
				d="M4 11.29l1-1v1.42l-1.15 1.14L3 12.5V10H1.5L1 9.5v-8l.5-.5h12l.5.5V6h-1V2H2v7h1.5l.5.5v1.79zM10.29 13l1.86 1.85.85-.35V13h1.5l.5-.5v-5l-.5-.5h-8l-.5.5v5l.5.5h3.79zm.21-1H7V8h7v4h-1.5l-.5.5v.79l-1.15-1.14-.35-.15z" fill="black" />
		</clipPath>
		<linearGradient id="gradient" gradientTransform="rotate(45)">
            <!-- A bit more subdued than the usual colors -->
			<stop offset="0.2" stop-color="#60d5e7" />
			<stop offset="0.7" stop-color="#cd8bfa" />
			<stop offset="1" stop-color="#f4897d" />
		</linearGradient>
	</defs>
	<rect cx="0" cy="0" height="16" width="16" clip-path="url(#dicsussion-icon)" fill="url(#gradient)" />
</svg>
