<svg width="128" height="128" viewBox="0 0 128 128" fill="none" xmlns="http://www.w3.org/2000/svg">
<path d="M75.699 31.1898C70.6543 33.8637 69.6842 37.0151 69.6842 50.1935C69.6842 64.5178 70.7513 67.9557 76.184 70.4386C80.8406 72.635 85.7883 71.7755 89.5718 68.0512V68.0512C91.4382 66.214 92.5152 63.7218 92.5743 61.1035L92.7732 52.2944C93.1612 37.8745 91.9971 33.7682 87.0495 31.2853C83.751 29.5664 78.7064 29.4709 75.699 31.1898Z" fill="black"/>
<path d="M16.8218 46.0614C12.4929 48.9561 10.7613 54.0702 12.3967 58.9912C13.0701 61.2105 14.8017 63.4298 16.8218 64.7807C19.804 66.807 21.1508 67 32.5023 67C49.3371 67 53.4736 64.6842 53.4736 55.4211C53.4736 46.1579 49.3371 43.8421 32.5023 43.8421C21.1508 43.8421 19.804 44.0351 16.8218 46.0614Z" fill="black"/>
<path d="M103.002 102.894C93.8414 101.534 86.5878 97.4071 79.572 93.4164C72.2021 89.2231 65.2418 85.2632 57.0526 85.2632C48.8632 85.2632 41.9032 89.2231 34.5332 93.4164C27.5175 97.4071 20.2639 101.539 11.1033 102.894C9.80847 103.083 8.89798 104.108 9.00918 105.248C9.11541 106.387 10.213 107.263 11.5282 107.263C23.3088 107.263 31.7612 104.553 39.2172 102.159C45.4086 100.175 50.7501 98.4631 57.0526 98.4631C63.1377 98.4631 67.9481 100.091 73.5223 101.974C80.8567 104.452 89.1725 107.263 102.577 107.263C103.892 107.263 104.99 106.388 105.096 105.248C105.207 104.108 104.297 103.087 103.002 102.894Z" fill="black"/>
<path d="M113.088 44.1842C112.346 44.1842 111.64 44.3211 110.984 44.5552C108.178 30.8497 96.0658 20.5 81.5587 20.5C64.9811 20.5 51.5 34.0035 51.5 50.6053C51.5 67.2071 64.9811 80.7106 81.5587 80.7106C96.0658 80.7106 108.178 70.3608 110.984 56.6553C111.64 56.8895 112.346 57.0263 113.088 57.0263C113.6 57.0263 114.091 56.9558 114.559 56.838V94.0262C114.559 95.3911 115.665 96.5 117.029 96.5C118.394 96.5 119.5 95.3911 119.5 94.0262V50.6053C119.5 47.0653 116.624 44.1842 113.088 44.1842ZM81.5587 75.7633C67.7104 75.7633 56.4411 64.4773 56.4411 50.6053C56.4411 36.7332 67.7104 25.4473 81.5587 25.4473C95.407 25.4473 106.676 36.7332 106.676 50.6053C106.676 64.4773 95.407 75.7633 81.5587 75.7633Z" fill="black" stroke="black"/>
</svg>
