<svg xmlns="http://www.w3.org/2000/svg" fill="white" height="{height}" viewBox="0 0 {height}" opacity="0.34">
    <g transform="translate(0,{iconHeight}) scale(0.01,-0.01)" stroke="none">
        <path d="M832 1126 c-52 -28 -62 -61 -62 -199 0 -150 11 -186 67 -212 48 -23
        99 -14 138 25 l30 30 3 135 c4 151 -8 194 -59 220 -34 18 -86 19 -117 1z"/>
        <path d="M219 967 c-45 -30 -63 -83 -46 -134 7 -23 25 -46 46 -60 31 -21 45
        -23 163 -23 175 0 218 24 218 120 0 96 -43 120 -218 120 -118 0 -132 -2 -163
        -23z"/>
        <path d="M977 503 c-40 -38 -96 -80 -123 -95 -185 -100 -409 -68 -569 83 -56
        52 -82 63 -124 54 -50 -11 -81 -51 -81 -104 0 -44 3 -49 73 -116 137 -132 305
        -192 511 -182 186 9 308 62 446 193 83 80 85 83 85 129 0 40 -5 51 -33 76 -24
        22 -42 29 -72 29 -36 0 -48 -8 -113 -67z"/>
    </g>
    <g transform="translate(20 3.5) scale(0.45)" stroke="none">
        <path d="M6,2A4,4 0 0,1 10,6V8H14V6A4,4 0 0,1 18,2A4,4 0 0,1 22,6A4,4 0 0,1 18,10H16V14H18A4,4 0 0,1 22,18A4,4 0 0,1 18,22A4,4 0 0,1 14,18V16H10V18A4,4 0 0,1 6,22A4,4 0 0,1 2,18A4,4 0 0,1 6,14H8V10H6A4,4 0 0,1 2,6A4,4 0 0,1 6,2M16,18A2,2 0 0,0 18,20A2,2 0 0,0 20,18A2,2 0 0,0 18,16H16V18M14,10H10V14H14V10M6,16A2,2 0 0,0 4,18A2,2 0 0,0 6,20A2,2 0 0,0 8,18V16H6M8,6A2,2 0 0,0 6,4A2,2 0 0,0 4,6A2,2 0 0,0 6,8H8V6M18,8A2,2 0 0,0 20,6A2,2 0 0,0 18,4A2,2 0 0,0 16,6V8H18Z"/>
    </g>
    <text x="34" y="{textHeight}" font-family="{fontFamily}" font-size="{fontSize}">K to Edit,</text>
    <g transform="translate(110 3.5) scale(0.45)" stroke="none">
        <path d="M6,2A4,4 0 0,1 10,6V8H14V6A4,4 0 0,1 18,2A4,4 0 0,1 22,6A4,4 0 0,1 18,10H16V14H18A4,4 0 0,1 22,18A4,4 0 0,1 18,22A4,4 0 0,1 14,18V16H10V18A4,4 0 0,1 6,22A4,4 0 0,1 2,18A4,4 0 0,1 6,14H8V10H6A4,4 0 0,1 2,6A4,4 0 0,1 6,2M16,18A2,2 0 0,0 18,20A2,2 0 0,0 20,18A2,2 0 0,0 18,16H16V18M14,10H10V14H14V10M6,16A2,2 0 0,0 4,18A2,2 0 0,0 6,20A2,2 0 0,0 8,18V16H6M8,6A2,2 0 0,0 6,4A2,2 0 0,0 4,6A2,2 0 0,0 6,8H8V6M18,8A2,2 0 0,0 20,6A2,2 0 0,0 18,4A2,2 0 0,0 16,6V8H18Z"/>
    </g>
    <text x="124" y="{textHeight}" font-family="{fontFamily}" font-size="{fontSize}">L to Chat</text>
</svg>

