<svg width="197" height="68" viewBox="0 0 197 68" fill="none" xmlns="http://www.w3.org/2000/svg">
<path fill-rule="evenodd" clip-rule="evenodd" d="M29.1677 32.0642C31.3968 32.0642 33.2038 33.8712 33.2038 36.1003L33.2038 43.2755C33.2038 45.5045 31.3968 47.3115 29.1677 47.3115C26.9387 47.3115 25.1317 45.5045 25.1317 43.2755L25.1317 36.1003C25.1317 33.8712 26.9387 32.0642 29.1677 32.0642Z" fill="#FF5543" style="fill:#FF5543;fill:color(display-p3 1.0000 0.3333 0.2627);fill-opacity:1;"/>
<path fill-rule="evenodd" clip-rule="evenodd" d="M3.60577 41.4816C3.60577 39.2526 5.41278 37.4456 7.64182 37.4456H14.817C17.0461 37.4456 18.8531 39.2526 18.8531 41.4816C18.8531 43.7107 17.0461 45.5177 14.817 45.5177H7.64182C5.41278 45.5177 3.60577 43.7107 3.60577 41.4816Z" fill="#A112FF" style="fill:#A112FF;fill:color(display-p3 0.6314 0.0706 1.0000);fill-opacity:1;"/>
<path fill-rule="evenodd" clip-rule="evenodd" d="M38.8137 53.2312C40.2502 54.5958 40.3084 56.8666 38.9437 58.3031L37.6739 59.6398C27.737 70.0997 10.9844 69.8391 1.37771 59.0752C0.0583752 57.597 0.187198 55.3291 1.66544 54.0098C3.14369 52.6904 5.41158 52.8193 6.73091 54.2975C13.5439 61.9311 25.4247 62.1159 32.4719 54.6979L33.7417 53.3612C35.1064 51.9247 37.3772 51.8665 38.8137 53.2312Z" fill="#00CBEC" style="fill:#00CBEC;fill:color(display-p3 0.0000 0.7961 0.9255);fill-opacity:1;"/>
<g filter="url(#filter0_d_6351_225831)">
<mask id="path-4-inside-1_6351_225831" fill="white">
<path fill-rule="evenodd" clip-rule="evenodd" d="M67.3863 8.93561C59.0399 8.93561 52.2738 15.7017 52.2738 24.0481C52.2738 26.723 52.9687 29.2355 54.1879 31.4151C53.0296 35.6783 50.8709 40.3078 46.8633 43.4717C49.9579 43.1278 56.6762 41.6336 62.2552 38.2673C63.8572 38.8455 65.585 39.1607 67.3863 39.1607H169.396C177.742 39.1607 184.509 32.3946 184.509 24.0481C184.509 15.7017 177.742 8.93561 169.396 8.93561H67.3863Z"/>
</mask>
<g filter="url(#filter1_i_6351_225831)">
<path fill-rule="evenodd" clip-rule="evenodd" d="M67.3863 8.93561C59.0399 8.93561 52.2738 15.7017 52.2738 24.0481C52.2738 26.723 52.9687 29.2355 54.1879 31.4151C53.0296 35.6783 50.8709 40.3078 46.8633 43.4717C49.9579 43.1278 56.6762 41.6336 62.2552 38.2673C63.8572 38.8455 65.585 39.1607 67.3863 39.1607H169.396C177.742 39.1607 184.509 32.3946 184.509 24.0481C184.509 15.7017 177.742 8.93561 169.396 8.93561H67.3863Z" fill="#9013DB" style="fill:#9013DB;fill:color(display-p3 0.5647 0.0745 0.8588);fill-opacity:1;"/>
</g>
<path d="M54.1879 31.4151L55.378 31.7384L55.51 31.2525L55.2642 30.813L54.1879 31.4151ZM46.8633 43.4717L46.0991 42.5037L42.7179 45.1731L46.9995 44.6974L46.8633 43.4717ZM62.2552 38.2673L62.6739 37.1073L62.1212 36.9078L61.6181 37.2114L62.2552 38.2673ZM53.507 24.0481C53.507 16.3828 59.721 10.1688 67.3863 10.1688V7.70237C58.3588 7.70237 51.0405 15.0206 51.0405 24.0481H53.507ZM55.2642 30.813C54.1453 28.8127 53.507 26.5068 53.507 24.0481H51.0405C51.0405 26.9392 51.7922 29.6584 53.1116 32.0171L55.2642 30.813ZM47.6275 44.4396C51.9243 41.0474 54.184 36.1332 55.378 31.7384L52.9978 31.0918C51.8753 35.2235 49.8175 39.5682 46.0991 42.5037L47.6275 44.4396ZM61.6181 37.2114C56.2353 40.4593 49.703 41.9153 46.7271 42.246L46.9995 44.6974C50.2128 44.3404 57.1171 42.8079 62.8923 39.3232L61.6181 37.2114ZM67.3863 37.9275C65.7297 37.9275 64.1435 37.6378 62.6739 37.1073L61.8365 39.4273C63.5709 40.0533 65.4402 40.3939 67.3863 40.3939V37.9275ZM169.396 37.9275H67.3863V40.3939H169.396V37.9275ZM183.275 24.0481C183.275 31.7135 177.061 37.9275 169.396 37.9275V40.3939C178.423 40.3939 185.742 33.0757 185.742 24.0481H183.275ZM169.396 10.1688C177.061 10.1688 183.275 16.3828 183.275 24.0481H185.742C185.742 15.0206 178.423 7.70237 169.396 7.70237V10.1688ZM67.3863 10.1688H169.396V7.70237H67.3863V10.1688Z" fill="black" fill-opacity="0.1" style="fill:black;fill-opacity:0.1;" mask="url(#path-4-inside-1_6351_225831)"/>
</g>
<path d="M85.3319 29.0321H83.8548V24.7995H78.9465V29.0321H77.4628V19.4739H78.9465V23.5144H83.8548V19.4739H85.3319V29.0321ZM88.2994 20.5536C87.8026 20.5536 87.3985 20.1495 87.3985 19.6594C87.3985 19.1626 87.8026 18.7585 88.2994 18.7585C88.7962 18.7585 89.2002 19.1626 89.2002 19.6594C89.2002 20.1495 88.7962 20.5536 88.2994 20.5536ZM87.5906 29.0321V21.8386H89.0081V29.0321H87.5906ZM92.0154 31.516H91.0085L91.6246 27.6278H93.1149L92.0154 31.516ZM100.739 29.0321H99.2552V19.4739H100.739V29.0321ZM103.852 23.2031H102.839L103.567 19.4739H105.078L103.852 23.2031ZM107.012 29.0321V21.8386H108.383V22.9845H108.489C108.807 22.1764 109.535 21.6995 110.496 21.6995C111.483 21.6995 112.165 22.2095 112.483 22.9845H112.596C112.96 22.2095 113.788 21.6995 114.788 21.6995C116.245 21.6995 117.093 22.5739 117.093 24.0708V29.0321H115.669V24.4153C115.669 23.4217 115.205 22.9382 114.271 22.9382C113.351 22.9382 112.748 23.6138 112.748 24.4815V29.0321H111.35V24.2696C111.35 23.4482 110.807 22.9382 109.959 22.9382C109.092 22.9382 108.436 23.6734 108.436 24.614V29.0321H107.012ZM126.89 29.2639C124.234 29.2639 122.578 27.343 122.578 24.2563C122.578 21.163 124.227 19.2421 126.883 19.2421C128.99 19.2421 130.619 20.5867 130.858 22.501H129.38C129.102 21.3153 128.142 20.5602 126.883 20.5602C125.168 20.5602 124.095 21.9843 124.095 24.2563C124.095 26.5283 125.168 27.9458 126.89 27.9458C128.155 27.9458 129.116 27.2635 129.38 26.1772H130.858C130.593 28.0385 129.023 29.2639 126.89 29.2639ZM135.693 29.1712C133.58 29.1712 132.288 27.7603 132.288 25.4354C132.288 23.117 133.587 21.6995 135.693 21.6995C137.793 21.6995 139.091 23.1104 139.091 25.4354C139.091 27.7603 137.799 29.1712 135.693 29.1712ZM135.693 27.959C136.925 27.959 137.627 27.0317 137.627 25.4354C137.627 23.8324 136.925 22.905 135.693 22.905C134.454 22.905 133.759 23.8324 133.759 25.4354C133.759 27.0383 134.454 27.959 135.693 27.959ZM143.443 29.1513C141.608 29.1513 140.449 27.7073 140.449 25.4287C140.449 23.1634 141.621 21.7128 143.443 21.7128C144.43 21.7128 145.264 22.1897 145.655 22.9779H145.761V19.0169H147.185V29.0321H145.821V27.8928H145.708C145.278 28.681 144.436 29.1513 143.443 29.1513ZM143.847 22.9315C142.648 22.9315 141.919 23.8788 141.919 25.4354C141.919 26.9986 142.641 27.9325 143.847 27.9325C145.046 27.9325 145.788 26.9853 145.788 25.4354C145.788 23.8986 145.039 22.9315 143.847 22.9315ZM150.04 31.6419C149.921 31.6419 149.583 31.6287 149.451 31.6088V30.443C149.563 30.4629 149.782 30.4695 149.914 30.4695C150.59 30.4695 150.974 30.1847 151.219 29.4229L151.325 29.052L148.715 21.8386H150.265L152.074 27.6014H152.186L153.988 21.8386H155.498L152.809 29.3633C152.193 31.0921 151.511 31.6419 150.04 31.6419ZM157.333 19.4673H158.943L158.81 25.8659H157.472L157.333 19.4673ZM158.148 29.1778C157.532 29.1778 157.121 28.7804 157.121 28.1909C157.121 27.5947 157.532 27.1973 158.148 27.1973C158.757 27.1973 159.161 27.5947 159.161 28.1909C159.161 28.7804 158.757 29.1778 158.148 29.1778Z" fill="#EFF2F5" style="fill:#EFF2F5;fill:color(display-p3 0.9373 0.9490 0.9608);fill-opacity:1;"/>
<defs>
<filter id="filter0_d_6351_225831" x="34.5309" y="1.53617" width="162.31" height="59.2009" filterUnits="userSpaceOnUse" color-interpolation-filters="sRGB">
<feFlood flood-opacity="0" result="BackgroundImageFix"/>
<feColorMatrix in="SourceAlpha" type="matrix" values="0 0 0 0 0 0 0 0 0 0 0 0 0 0 0 0 0 0 127 0" result="hardAlpha"/>
<feOffset dy="4.93296"/>
<feGaussianBlur stdDeviation="6.1662"/>
<feComposite in2="hardAlpha" operator="out"/>
<feColorMatrix type="matrix" values="0 0 0 0 0.0125 0 0 0 0 0.0125 0 0 0 0 0.0125 0 0 0 0.15 0"/>
<feBlend mode="normal" in2="BackgroundImageFix" result="effect1_dropShadow_6351_225831"/>
<feBlend mode="normal" in="SourceGraphic" in2="effect1_dropShadow_6351_225831" result="shape"/>
</filter>
<filter id="filter1_i_6351_225831" x="46.8633" y="8.93561" width="137.645" height="34.5361" filterUnits="userSpaceOnUse" color-interpolation-filters="sRGB">
<feFlood flood-opacity="0" result="BackgroundImageFix"/>
<feBlend mode="normal" in="SourceGraphic" in2="BackgroundImageFix" result="shape"/>
<feColorMatrix in="SourceAlpha" type="matrix" values="0 0 0 0 0 0 0 0 0 0 0 0 0 0 0 0 0 0 127 0" result="hardAlpha"/>
<feOffset/>
<feGaussianBlur stdDeviation="6.78281"/>
<feComposite in2="hardAlpha" operator="arithmetic" k2="-1" k3="1"/>
<feColorMatrix type="matrix" values="0 0 0 0 0.681482 0 0 0 0 0.266667 0 0 0 0 1 0 0 0 0.44 0"/>
<feBlend mode="overlay" in2="shape" result="effect1_innerShadow_6351_225831"/>
</filter>
</defs>
</svg>
