<svg width="171" height="69" viewBox="0 0 171 69" fill="none" xmlns="http://www.w3.org/2000/svg">
<path fill-rule="evenodd" clip-rule="evenodd" d="M29.2729 40C31.0804 40 32.5457 41.4652 32.5457 43.2727L32.5457 49.0909C32.5457 50.8984 31.0804 52.3636 29.2729 52.3636C27.4655 52.3636 26.0002 50.8984 26.0002 49.0909L26.0002 43.2727C26.0002 41.4652 27.4655 40 29.2729 40Z" fill="#FF5543"/>
<path fill-rule="evenodd" clip-rule="evenodd" d="M8.54541 47.636C8.54541 45.8285 10.0107 44.3633 11.8181 44.3633H17.6363C19.4438 44.3633 20.909 45.8285 20.909 47.636C20.909 49.4435 19.4438 50.9087 17.6363 50.9087H11.8181C10.0107 50.9087 8.54541 49.4435 8.54541 47.636Z" fill="#A112FF"/>
<path fill-rule="evenodd" clip-rule="evenodd" d="M37.0945 57.1633C38.2594 58.2699 38.3066 60.1112 37.2 61.276L36.1703 62.3599C28.1128 70.8415 14.5286 70.6302 6.73873 61.9021C5.66892 60.7034 5.77338 58.8644 6.97205 57.7946C8.17072 56.7248 10.0097 56.8293 11.0795 58.0279C16.604 64.2179 26.2378 64.3677 31.9521 58.3526L32.9818 57.2687C34.0884 56.1039 35.9297 56.0567 37.0945 57.1633Z" fill="#00CBEC"/>
<g filter="url(#filter0_d_4840_19430)">
<mask id="path-4-inside-1_4840_19430" fill="white">
<path fill-rule="evenodd" clip-rule="evenodd" d="M72.5 6C61.7304 6 53 14.7304 53 25.5C53 25.8498 53.0092 26.1975 53.0274 26.5428L53 26.5C53 26.5 53.6 39 46 45C48.7123 44.6986 54.8578 43.3074 59.5589 40.0872C63.0016 43.1437 67.534 45 72.5 45H140.726C151.495 45 160.226 36.2696 160.226 25.5C160.226 14.7304 151.495 6 140.726 6H72.5Z"/>
</mask>
<g filter="url(#filter1_i_4840_19430)">
<path fill-rule="evenodd" clip-rule="evenodd" d="M72.5 6C61.7304 6 53 14.7304 53 25.5C53 25.8498 53.0092 26.1975 53.0274 26.5428L53 26.5C53 26.5 53.6 39 46 45C48.7123 44.6986 54.8578 43.3074 59.5589 40.0872C63.0016 43.1437 67.534 45 72.5 45H140.726C151.495 45 160.226 36.2696 160.226 25.5C160.226 14.7304 151.495 6 140.726 6H72.5Z" fill="url(#paint0_linear_4840_19430)"/>
<path fill-rule="evenodd" clip-rule="evenodd" d="M72.5 6C61.7304 6 53 14.7304 53 25.5C53 25.8498 53.0092 26.1975 53.0274 26.5428L53 26.5C53 26.5 53.6 39 46 45C48.7123 44.6986 54.8578 43.3074 59.5589 40.0872C63.0016 43.1437 67.534 45 72.5 45H140.726C151.495 45 160.226 36.2696 160.226 25.5C160.226 14.7304 151.495 6 140.726 6H72.5Z" fill="url(#paint1_radial_4840_19430)"/>
<path fill-rule="evenodd" clip-rule="evenodd" d="M72.5 6C61.7304 6 53 14.7304 53 25.5C53 25.8498 53.0092 26.1975 53.0274 26.5428L53 26.5C53 26.5 53.6 39 46 45C48.7123 44.6986 54.8578 43.3074 59.5589 40.0872C63.0016 43.1437 67.534 45 72.5 45H140.726C151.495 45 160.226 36.2696 160.226 25.5C160.226 14.7304 151.495 6 140.726 6H72.5Z" fill="url(#paint2_radial_4840_19430)"/>
</g>
<path d="M53.0274 26.5428L52.1851 27.0819L54.2252 30.2694L54.026 26.4902L53.0274 26.5428ZM53 26.5L53.8423 25.9609L51.8214 22.8034L52.0012 26.5479L53 26.5ZM46 45L45.3804 44.2151L42.6386 46.3796L46.1104 45.9939L46 45ZM59.5589 40.0872L60.2228 39.3393L59.6384 38.8205L58.9937 39.2622L59.5589 40.0872ZM54 25.5C54 15.2827 62.2827 7 72.5 7V5C61.1782 5 52 14.1782 52 25.5H54ZM54.026 26.4902C54.0087 26.1624 54 25.8323 54 25.5H52C52 25.8674 52.0097 26.2326 52.0288 26.5954L54.026 26.4902ZM52.1577 27.0391L52.1851 27.0819L53.8697 26.0038L53.8423 25.9609L52.1577 27.0391ZM46.6196 45.7849C50.6901 42.5714 52.5099 37.6716 53.3293 33.7022C53.7422 31.7026 53.9094 29.8997 53.9738 28.5962C54.006 27.9436 54.0126 27.4138 54.0109 27.0444C54.0101 26.8596 54.0072 26.7148 54.0045 26.6146C54.0031 26.5644 54.0018 26.5254 54.0008 26.4982C54.0003 26.4845 53.9998 26.4738 53.9995 26.4661C53.9993 26.4623 53.9992 26.4592 53.9991 26.4568C53.999 26.4556 53.999 26.4547 53.9989 26.4539C53.9989 26.4535 53.9989 26.453 53.9989 26.4528C53.9989 26.4524 53.9988 26.4521 53 26.5C52.0012 26.5479 52.0011 26.5477 52.0011 26.5475C52.0011 26.5475 52.0011 26.5473 52.0011 26.5473C52.0011 26.5473 52.0011 26.5474 52.0011 26.5478C52.0012 26.5484 52.0012 26.5499 52.0013 26.5521C52.0015 26.5564 52.0018 26.5637 52.0022 26.5739C52.003 26.5943 52.0041 26.6262 52.0053 26.6691C52.0076 26.7549 52.0102 26.8845 52.0109 27.0532C52.0124 27.3909 52.0065 27.8845 51.9762 28.4976C51.9156 29.7253 51.7578 31.4224 51.3707 33.2978C50.5901 37.0784 48.9099 41.4286 45.3804 44.2151L46.6196 45.7849ZM58.9937 39.2622C54.4755 42.3572 48.5073 43.7153 45.8896 44.0061L46.1104 45.9939C48.9173 45.682 55.2402 44.2575 60.124 40.9122L58.9937 39.2622ZM72.5 44C67.788 44 63.4896 42.2397 60.2228 39.3393L58.8949 40.835C62.5137 44.0477 67.28 46 72.5 46V44ZM140.726 44H72.5V46H140.726V44ZM159.226 25.5C159.226 35.7173 150.943 44 140.726 44V46C152.047 46 161.226 36.8218 161.226 25.5H159.226ZM140.726 7C150.943 7 159.226 15.2827 159.226 25.5H161.226C161.226 14.1782 152.047 5 140.726 5V7ZM72.5 7H140.726V5H72.5V7Z" fill="black" fill-opacity="0.1" mask="url(#path-4-inside-1_4840_19430)"/>
</g>
<path d="M68.2373 30V20.1357H69.7686V24.3057H74.834V20.1357H76.3584V30H74.834V25.6318H69.7686V30H68.2373ZM79.1846 21.25C78.6719 21.25 78.2549 20.833 78.2549 20.3271C78.2549 19.8145 78.6719 19.3975 79.1846 19.3975C79.6904 19.3975 80.1143 19.8145 80.1143 20.3271C80.1143 20.833 79.6904 21.25 79.1846 21.25ZM78.4395 30V22.5762H79.916V30H78.4395ZM82.3594 26.7324L82.2158 20.1289H83.877L83.7402 26.7324H82.3594ZM83.0566 30.1504C82.4209 30.1504 81.9971 29.7402 81.9971 29.1318C81.9971 28.5166 82.4209 28.1064 83.0566 28.1064C83.6855 28.1064 84.1025 28.5166 84.1025 29.1318C84.1025 29.7402 83.6855 30.1504 83.0566 30.1504ZM89.9053 30V20.1357H91.4365V30H89.9053ZM93.5381 24.1484L94.1396 20.1357H95.7188L94.584 24.1484H93.5381ZM97.6562 30V22.5762H99.1396V23.7178H99.249C99.5771 22.9043 100.302 22.4326 101.272 22.4326C102.284 22.4326 103.002 22.959 103.33 23.7588H103.446C103.822 22.959 104.677 22.4326 105.709 22.4326C107.206 22.4326 108.081 23.335 108.081 24.8799V30H106.604V25.2354C106.604 24.21 106.14 23.7041 105.169 23.7041C104.226 23.7041 103.604 24.4082 103.604 25.3037V30H102.127V25.085C102.127 24.2373 101.573 23.7041 100.698 23.7041C99.8027 23.7041 99.1396 24.4697 99.1396 25.4404V30H97.6562ZM117.698 30.2393C114.957 30.2393 113.248 28.2568 113.248 25.0781V25.0645C113.248 21.8789 114.95 19.8965 117.691 19.8965C119.865 19.8965 121.533 21.2705 121.793 23.2324L121.786 23.2666H120.269V23.2461C119.981 22.0361 118.99 21.25 117.691 21.25C115.921 21.25 114.813 22.7197 114.813 25.0645V25.0781C114.813 27.416 115.921 28.8857 117.698 28.8857C119.004 28.8857 119.981 28.1885 120.262 27.0742L120.275 27.0469H121.793V27.0879C121.506 28.9814 119.899 30.2393 117.698 30.2393ZM126.533 30.1436C124.353 30.1436 123.02 28.6875 123.02 26.2949V26.2812C123.02 23.8955 124.359 22.4326 126.533 22.4326C128.7 22.4326 130.04 23.8887 130.04 26.2812V26.2949C130.04 28.6875 128.707 30.1436 126.533 30.1436ZM126.533 28.9062C127.805 28.9062 128.529 27.9355 128.529 26.2949V26.2812C128.529 24.6338 127.805 23.6699 126.533 23.6699C125.255 23.6699 124.537 24.6338 124.537 26.2812V26.2949C124.537 27.9424 125.255 28.9062 126.533 28.9062ZM134.268 30.123C132.401 30.123 131.191 28.626 131.191 26.2949V26.2812C131.191 23.9297 132.381 22.4463 134.268 22.4463C135.286 22.4463 136.154 22.9521 136.551 23.752H136.667V19.6641H138.144V30H136.667V28.8311H136.551C136.12 29.6445 135.307 30.123 134.268 30.123ZM134.691 28.8584C135.929 28.8584 136.688 27.8809 136.688 26.2949V26.2812C136.688 24.6953 135.922 23.7178 134.691 23.7178C133.447 23.7178 132.702 24.6885 132.702 26.2812V26.2949C132.702 27.8877 133.447 28.8584 134.691 28.8584ZM140.826 32.6113C140.642 32.6113 140.423 32.5977 140.231 32.5771V31.4082C140.375 31.4287 140.56 31.4355 140.73 31.4355C141.421 31.4355 141.838 31.1416 142.057 30.3896L142.166 30.0068L139.473 22.5762H141.072L142.932 28.5098H143.062L144.914 22.5762H146.473L143.711 30.2871C143.082 32.0576 142.33 32.6113 140.826 32.6113Z" fill="#EFF2F5"/>
<defs>
<filter id="filter0_d_4840_19430" x="36" y="0" width="134.226" height="59" filterUnits="userSpaceOnUse" color-interpolation-filters="sRGB">
<feFlood flood-opacity="0" result="BackgroundImageFix"/>
<feColorMatrix in="SourceAlpha" type="matrix" values="0 0 0 0 0 0 0 0 0 0 0 0 0 0 0 0 0 0 127 0" result="hardAlpha"/>
<feOffset dy="4"/>
<feGaussianBlur stdDeviation="5"/>
<feComposite in2="hardAlpha" operator="out"/>
<feColorMatrix type="matrix" values="0 0 0 0 0.0125 0 0 0 0 0.0125 0 0 0 0 0.0125 0 0 0 0.15 0"/>
<feBlend mode="normal" in2="BackgroundImageFix" result="effect1_dropShadow_4840_19430"/>
<feBlend mode="normal" in="SourceGraphic" in2="effect1_dropShadow_4840_19430" result="shape"/>
</filter>
<filter id="filter1_i_4840_19430" x="46" y="6" width="114.226" height="39" filterUnits="userSpaceOnUse" color-interpolation-filters="sRGB">
<feFlood flood-opacity="0" result="BackgroundImageFix"/>
<feBlend mode="normal" in="SourceGraphic" in2="BackgroundImageFix" result="shape"/>
<feColorMatrix in="SourceAlpha" type="matrix" values="0 0 0 0 0 0 0 0 0 0 0 0 0 0 0 0 0 0 127 0" result="hardAlpha"/>
<feOffset/>
<feGaussianBlur stdDeviation="5.5"/>
<feComposite in2="hardAlpha" operator="arithmetic" k2="-1" k3="1"/>
<feColorMatrix type="matrix" values="0 0 0 0 0.681482 0 0 0 0 0.266667 0 0 0 0 1 0 0 0 0.44 0"/>
<feBlend mode="overlay" in2="shape" result="effect1_innerShadow_4840_19430"/>
</filter>
<linearGradient id="paint0_linear_4840_19430" x1="96.5" y1="6" x2="96" y2="50.5" gradientUnits="userSpaceOnUse">
<stop stop-color="#983DE6"/>
<stop offset="0.252189" stop-color="#890CDA"/>
<stop offset="0.694648" stop-color="#7936B0"/>
<stop offset="1" stop-color="#6214A2"/>
</linearGradient>
<radialGradient id="paint1_radial_4840_19430" cx="0" cy="0" r="1" gradientUnits="userSpaceOnUse" gradientTransform="translate(216 -75.5) rotate(101.889) scale(174.748 380.5)">
<stop stop-color="#EE00FF"/>
<stop offset="0.54373" stop-color="#F348FF" stop-opacity="0"/>
</radialGradient>
<radialGradient id="paint2_radial_4840_19430" cx="0" cy="0" r="1" gradientUnits="userSpaceOnUse" gradientTransform="translate(76.5 -118.5) rotate(64.1895) scale(237.715 517.604)">
<stop stop-color="#EE00FF"/>
<stop offset="0.54373" stop-color="#F348FF" stop-opacity="0"/>
</radialGradient>
</defs>
</svg>
