<svg width="194" height="186" viewBox="0 0 194 186" fill="none" xmlns="http://www.w3.org/2000/svg">
<path fill-rule="evenodd" clip-rule="evenodd" d="M163.42 4.82001L189.56 73.04L189.83 73.73L189.56 73.04C176.823 75.6545 164.82 81.0496 154.41 88.84L97 132.25C77.896 146.664 61.2078 159.301 60.4564 159.87L60.43 159.85C60.43 159.85 77.43 147 97 132.21L39.58 88.84C29.1779 81.0335 17.178 75.6243 4.44 73L30.63 4.81001C31.1654 3.47505 32.1063 2.34179 33.32 1.57001C34.5372 0.814399 35.957 0.45047 37.3876 0.527366C38.8182 0.604261 40.1908 1.11828 41.32 2.00001C42.4454 2.90337 43.2572 4.13861 43.64 5.53001L61.29 59.53H132.76L150.41 5.53001C150.803 4.14615 151.613 2.91707 152.73 2.01002C153.859 1.12828 155.232 0.614264 156.662 0.537368C158.093 0.460472 159.513 0.824401 160.73 1.58002C161.946 2.34869 162.888 3.48294 163.42 4.82001Z" fill="white"/>
<path d="M189.83 73.73L189.56 73.04C176.823 75.6545 164.82 81.0496 154.41 88.84L97 132.25C116.55 147.04 133.57 159.89 133.57 159.89L173.63 129.89L173.73 129.81C182.127 123.469 188.238 114.572 191.141 104.458C194.045 94.3435 193.585 83.5599 189.83 73.73Z" fill="white" fill-opacity="0.66"/>
<path d="M60.4301 159.89L80.1301 174.8L92.1301 183.86C93.5337 184.926 95.2477 185.503 97.0101 185.503C98.7725 185.503 100.486 184.926 101.89 183.86L113.89 174.8L133.59 159.89C133.59 159.89 116.55 147 97.0001 132.25C77.4501 147 60.4301 159.89 60.4301 159.89Z" fill="white" fill-opacity="0.33"/>
<path d="M39.58 88.84C29.178 81.0335 17.178 75.6243 4.44003 73L4.18003 73.69C0.417055 83.5221 -0.0474224 94.311 2.85663 104.43C5.76067 114.549 11.8758 123.45 20.28 129.79L20.37 129.86L20.61 130.03L60.43 159.85C60.43 159.85 77.43 147 97 132.21L39.58 88.84Z" fill="white" fill-opacity="0.66"/>
</svg>
