<svg width="16" height="16" viewBox="0 0 16 16" fill="none" xmlns="http://www.w3.org/2000/svg">
<path d="M8.00018 3.16667C9.18018 3.16667 10.2368 3.57333 11.0702 4.36667L13.3535 2.08333C11.9668 0.793333 10.1568 0 8.00018 0C4.87352 0 2.17018 1.79333 0.853516 4.40667L3.51352 6.47C4.14352 4.57333 5.91352 3.16667 8.00018 3.16667Z" fill="#fff"/>
<path d="M15.66 8.18268C15.66 7.65935 15.61 7.15268 15.5333 6.66602H8V9.67268H12.3133C12.12 10.6593 11.56 11.4993 10.72 12.066L13.2967 14.066C14.8 12.6727 15.66 10.6127 15.66 8.18268Z" fill="#fff" fill-opacity="0.75" />
<path d="M3.51 9.52958C3.35 9.04625 3.25667 8.53292 3.25667 7.99958C3.25667 7.46625 3.34667 6.95292 3.51 6.46958L0.85 4.40625C0.306667 5.48625 0 6.70625 0 7.99958C0 9.29292 0.306667 10.5129 0.853333 11.5929L3.51 9.52958Z" fill="#fff" fill-opacity="0.75" />
<path d="M8.0001 16.0007C10.1601 16.0007 11.9768 15.2907 13.2968 14.064L10.7201 12.064C10.0034 12.5473 9.0801 12.8307 8.0001 12.8307C5.91343 12.8307 4.14343 11.424 3.5101 9.52734L0.850098 11.5907C2.1701 14.2073 4.87343 16.0007 8.0001 16.0007Z" fill="#fff"  fill-opacity="0.75" />
</svg>
