<svg width="16" height="16" viewBox="0 0 16 16" fill="currentColor" xmlns="http://www.w3.org/2000/svg">
    <path d="M0.57999 12.1713C0.414657 12.426 0.226657 12.7547 0.0713233 13.0013C0.00313112 13.1161 -0.0172626 13.2531 0.0145323 13.3828C0.0463272 13.5124 0.127768 13.6244 0.241323 13.6947L3.55132 15.7307C3.60886 15.7662 3.67289 15.7898 3.73967 15.8003C3.80646 15.8108 3.87466 15.8079 3.94031 15.7918C4.00597 15.7757 4.06775 15.7466 4.12206 15.7064C4.17637 15.6661 4.22213 15.6155 4.25666 15.5573C4.38932 15.336 4.55932 15.0487 4.74532 14.7433C6.05666 12.5787 7.37532 12.8413 9.75066 13.9793L13.0553 15.5373C13.1169 15.5667 13.1837 15.5833 13.2518 15.5864C13.3199 15.5894 13.388 15.5787 13.4519 15.555C13.5158 15.5312 13.5743 15.4949 13.6239 15.4481C13.6735 15.4013 13.7132 15.3451 13.7407 15.2827L15.3167 11.7187C15.37 11.5963 15.3732 11.4579 15.3256 11.3333C15.278 11.2086 15.1833 11.1076 15.062 11.052C13.9563 10.5324 12.8529 10.0077 11.752 9.478C7.27399 7.31333 3.48266 7.45666 0.57999 12.1713ZM15.4207 3.82866C15.5867 3.55866 15.7747 3.24533 15.93 2.99533C15.9969 2.88082 16.0165 2.74474 15.9846 2.61602C15.9527 2.48729 15.8719 2.37607 15.7593 2.306L12.45 0.26933C12.3925 0.233832 12.3284 0.210143 12.2616 0.199645C12.1949 0.189147 12.1266 0.192049 12.061 0.208183C11.9953 0.224316 11.9336 0.253359 11.8793 0.293616C11.8249 0.333874 11.7792 0.384541 11.7447 0.442663C11.5845 0.716642 11.4214 0.988881 11.2553 1.25933C9.94466 3.42333 8.62532 3.15933 6.24999 2.02333L2.95799 0.462663C2.89647 0.433435 2.82972 0.416842 2.76167 0.413865C2.69363 0.410888 2.62568 0.421588 2.56185 0.445332C2.49801 0.469076 2.43959 0.505382 2.39003 0.552101C2.34047 0.59882 2.30079 0.655005 2.27332 0.71733L0.697323 4.28133C0.643964 4.40366 0.640752 4.54205 0.688377 4.66672C0.736003 4.7914 0.830661 4.8924 0.95199 4.948C1.64466 5.27466 3.02199 5.926 4.26199 6.522C8.72732 8.686 12.5233 8.54133 15.4207 3.82866Z" />
</svg>
