<svg width="16" height="16" viewBox="0 0 16 16" fill="currentColor" xmlns="http://www.w3.org/2000/svg">
    <path d="M8 0C9.45778 0 10.7911 0.355556 12 1.06667C13.2444 1.77778 14.2222 2.75556 14.9333 4C15.6444 5.20889 16 6.54222 16 8C16 9.45778 15.6444 10.8089 14.9333 12.0533C14.2222 13.2622 13.2444 14.2222 12 14.9333C10.7911 15.6444 9.45778 16 8 16C6.54222 16 5.19111 15.6444 3.94667 14.9333C2.73778 14.2222 1.77778 13.2622 1.06667 12.0533C0.355556 10.8089 0 9.45778 0 8C0 6.54222 0.355556 5.20889 1.06667 4C1.77778 2.75556 2.73778 1.77778 3.94667 1.06667C5.19111 0.355556 6.54222 0 8 0ZM10.1333 14.5067C11.1644 14.1867 12.0711 13.6356 12.8533 12.8533C13.6356 12.0711 14.1867 11.1644 14.5067 10.1333C14.8622 9.10222 14.9511 8.03556 14.7733 6.93333C14.5956 5.83111 14.1867 4.83556 13.5467 3.94667C12.9067 3.05778 12.0889 2.36444 11.0933 1.86667C10.1333 1.36889 9.10222 1.12 8 1.12C6.89778 1.12 5.84889 1.36889 4.85333 1.86667C3.89333 2.36444 3.09333 3.05778 2.45333 3.94667C1.81333 4.83556 1.40444 5.83111 1.22667 6.93333C1.04889 8.03556 1.12 9.10222 1.44 10.1333C1.79556 11.1644 2.36444 12.0711 3.14667 12.8533C3.92889 13.6356 4.83556 14.1867 5.86667 14.5067H5.92C6.02667 14.5067 6.11556 14.4889 6.18667 14.4533C6.25778 14.3822 6.29333 14.2933 6.29333 14.1867V13.0133L5.92 13.0667H5.6C5.24444 13.1022 4.90667 13.0311 4.58667 12.8533C4.30222 12.6756 4.10667 12.4267 4 12.1067L3.68 11.52C3.60889 11.4489 3.53778 11.3778 3.46667 11.3067L3.04 10.9867C2.96889 10.9156 2.93333 10.8622 2.93333 10.8267C2.93333 10.7911 2.95111 10.7556 2.98667 10.72L3.25333 10.6667C3.36 10.6667 3.46667 10.7022 3.57333 10.7733C3.68 10.8089 3.78667 10.8444 3.89333 10.88L4.10667 11.1467L4.32 11.36C4.46222 11.6089 4.62222 11.8044 4.8 11.9467C5.01333 12.0889 5.24444 12.16 5.49333 12.16C5.77778 12.1244 6.04444 12.0533 6.29333 11.9467C6.32889 11.7689 6.38222 11.6089 6.45333 11.4667C6.52444 11.2889 6.61333 11.1467 6.72 11.04C6.25778 11.0044 5.83111 10.9156 5.44 10.7733C5.04889 10.5956 4.71111 10.3644 4.42667 10.08C4.14222 9.79556 3.94667 9.45778 3.84 9.06667C3.69778 8.60444 3.62667 8.12444 3.62667 7.62667C3.62667 7.30667 3.68 6.98667 3.78667 6.66667C3.92889 6.34667 4.10667 6.06222 4.32 5.81333C4.28444 5.67111 4.24889 5.54667 4.21333 5.44C4.21333 5.29778 4.21333 5.15556 4.21333 5.01333C4.21333 4.83556 4.23111 4.67555 4.26667 4.53333C4.30222 4.35556 4.33778 4.17778 4.37333 4H4.53333C4.67556 4 4.81778 4.01778 4.96 4.05333C5.13778 4.08889 5.29778 4.14222 5.44 4.21333L5.92 4.48L6.29333 4.69333C7.43111 4.37333 8.56889 4.37333 9.70667 4.69333L10.08 4.48L10.56 4.21333C10.7022 4.14222 10.8444 4.08889 10.9867 4.05333C11.1289 4.01778 11.2889 4 11.4667 4H11.5733C11.6444 4.17778 11.6978 4.35556 11.7333 4.53333C11.7689 4.67555 11.7867 4.83556 11.7867 5.01333C11.7867 5.15556 11.7689 5.29778 11.7333 5.44C11.7333 5.54667 11.7156 5.67111 11.68 5.81333C11.8933 6.06222 12.0533 6.34667 12.16 6.66667C12.3022 6.98667 12.3733 7.30667 12.3733 7.62667C12.3733 8.12444 12.3022 8.60444 12.16 9.06667C12.0533 9.45778 11.8578 9.79556 11.5733 10.08C11.2889 10.3644 10.9333 10.5956 10.5067 10.7733C10.1156 10.9156 9.68889 11.0044 9.22667 11.04C9.40444 11.1822 9.52889 11.3778 9.6 11.6267C9.67111 11.84 9.70667 12.0711 9.70667 12.32V14.1867C9.70667 14.2933 9.74222 14.3822 9.81333 14.4533C9.88444 14.4889 9.95556 14.5067 10.0267 14.5067H10.1333Z"/>
</svg>
