<svg width="16" height="16" viewBox="0 0 16 16" fill="none" xmlns="http://www.w3.org/2000/svg">
<g clip-path="url(#clip0_4840_19415)">
<path d="M15.7337 6.39428L15.7112 6.3368L13.5335 0.653384C13.4891 0.541992 13.4107 0.447498 13.3094 0.383459C13.2079 0.320509 13.0897 0.29019 12.9705 0.296596C12.8513 0.303002 12.7369 0.345825 12.6429 0.419283C12.5498 0.494849 12.4824 0.597244 12.4496 0.712534L10.9792 5.21128H5.02499L3.55457 0.712534C3.52268 0.596616 3.45505 0.493708 3.36129 0.418449C3.26722 0.344992 3.15287 0.302169 3.03368 0.295763C2.9145 0.289357 2.79622 0.319675 2.69481 0.382626C2.5937 0.446923 2.51531 0.541334 2.47071 0.65255L0.288816 6.33347L0.267156 6.39095C-0.046338 7.21006 -0.0850337 8.10889 0.156903 8.95191C0.398839 9.79493 0.908292 10.5364 1.60845 11.0646L1.61595 11.0705L1.63594 11.0846L4.95335 13.5689L6.59456 14.8111L7.59428 15.5659C7.71122 15.6547 7.85401 15.7027 8.00083 15.7027C8.14766 15.7027 8.29045 15.6547 8.40739 15.5659L9.40711 14.8111L11.0483 13.5689L14.3857 11.0696L14.394 11.063C15.0926 10.5347 15.6009 9.79393 15.8425 8.95204C16.084 8.11016 16.0459 7.21261 15.7337 6.39428Z" fill="#E24329"/>
<path d="M15.7337 6.39342L15.7112 6.33594C14.6501 6.55375 13.6501 7.00322 12.7828 7.65224L8 11.2687C9.62871 12.5009 11.0467 13.5714 11.0467 13.5714L14.3841 11.0721L14.3924 11.0655C15.092 10.5372 15.601 9.79594 15.8429 8.95334C16.0848 8.11073 16.0465 7.21235 15.7337 6.39342Z" fill="#FC6D26"/>
<path d="M4.95312 13.5722L6.59434 14.8144L7.59406 15.5692C7.71099 15.658 7.85378 15.706 8.00061 15.706C8.14743 15.706 8.29022 15.658 8.40716 15.5692L9.40688 14.8144L11.0481 13.5722C11.0481 13.5722 9.62849 12.4984 7.99978 11.2695C6.37106 12.4984 4.95312 13.5722 4.95312 13.5722Z" fill="#FCA326"/>
<path d="M3.21633 7.65362C2.34974 7.00326 1.35002 6.55262 0.288816 6.33398L0.267156 6.39147C-0.046338 7.21058 -0.0850337 8.1094 0.156903 8.95243C0.39884 9.79545 0.908292 10.537 1.60845 11.0652L1.61595 11.071L1.63594 11.0852L4.95335 13.5695C4.95335 13.5695 6.36962 12.4989 8 11.2668L3.21633 7.65362Z" fill="#FC6D26"/>
</g>
<defs>
<clipPath id="clip0_4840_19415">
<rect width="16" height="15.6735" fill="white" transform="translate(0 0.164062)"/>
</clipPath>
</defs>
</svg>
