<svg width="16" height="16" viewBox="0 0 16 16" fill="currentColor" xmlns="http://www.w3.org/2000/svg">
    <path d="M13.7657 6.9125H8.12036V9.23281H11.3454C11.2063 9.98281 10.7844 10.6172 10.1485 11.0422C9.61099 11.4016 8.92505 11.6141 8.1188 11.6141C6.55786 11.6141 5.23755 10.5594 4.76567 9.14219C4.64692 8.78281 4.57817 8.39844 4.57817 8.00313C4.57817 7.60781 4.64692 7.22344 4.76567 6.86406C5.23911 5.44844 6.55942 4.39375 8.12036 4.39375C9.00005 4.39375 9.78911 4.69688 10.411 5.29063L12.1297 3.57031C11.0907 2.60156 9.73599 2.00781 8.12036 2.00781C5.77817 2.00781 3.75161 3.35156 2.76567 5.31094C2.35942 6.12031 2.12817 7.03594 2.12817 8.00469C2.12817 8.97344 2.35942 9.8875 2.76567 10.6969C3.75161 12.6562 5.77817 14 8.12036 14C9.73911 14 11.0954 13.4625 12.086 12.5469C13.2188 11.5031 13.8735 9.96563 13.8735 8.13906C13.8735 7.71406 13.836 7.30625 13.7657 6.9125Z" />
</svg>
