<svg width="16" height="16" viewBox="0 0 16 16" xmlns="http://www.w3.org/2000/svg" fill="currentColor">
    <path d="M14.8619 0.568909H7.67969C7.67969 2.34669 9.13746 3.80446 10.9152 3.80446H12.2308V5.08446C12.2308 6.86223 13.6886 8.32001 15.4664 8.32001V1.17335C15.5019 0.853353 15.2175 0.568909 14.8619 0.568909Z" />
    <path d="M11.3062 4.12445H4.12402C4.12402 5.90223 5.5818 7.36001 7.35958 7.36001H8.67513V8.64001C8.67513 10.4178 10.1329 11.8756 11.9107 11.8756V4.76445C11.9462 4.40889 11.6618 4.12445 11.3062 4.12445Z" />
    <path d="M7.75059 7.71564H0.568359C0.568359 9.49341 2.02613 10.9512 3.80392 10.9512H5.11948V12.2312C5.11948 14.009 6.57726 15.4667 8.35503 15.4667V8.35564C8.39059 8.00008 8.10615 7.71564 7.75059 7.71564Z" />
</svg>
