<svg width="16" height="16" viewBox="0 0 16 16" fill="currentColor" xmlns="http://www.w3.org/2000/svg">
    <path fill-rule="evenodd" clip-rule="evenodd" d="M3.28596 3.28453C5.8893 0.681198 10.1106 0.681198 12.714 3.28453C15.3173 5.88786 15.3173 10.1092 12.714 12.7125C12.5889 12.8375 12.4194 12.9077 12.2426 12.9077C12.0659 12.9077 11.8963 12.8375 11.7713 12.7125L3.28596 4.2272C3.16098 4.10218 3.09077 3.93264 3.09077 3.75586C3.09077 3.57909 3.16098 3.40955 3.28596 3.28453ZM2.11263 4.93986C2.17455 4.87788 2.24807 4.82871 2.329 4.79516C2.40994 4.76161 2.49669 4.74434 2.5843 4.74434C2.67191 4.74434 2.75866 4.76161 2.83959 4.79516C2.92052 4.82871 2.99405 4.87788 3.05596 4.93986L11.0586 12.9425C11.1205 13.0045 11.1696 13.078 11.2031 13.1589C11.2366 13.2398 11.2538 13.3265 11.2538 13.4141C11.2537 13.5017 11.2365 13.5884 11.2029 13.6693C11.1694 13.7501 11.1202 13.8236 11.0583 13.8855C10.9964 13.9474 10.9228 13.9965 10.8419 14.03C10.761 14.0635 10.6743 14.0807 10.5867 14.0807C10.4992 14.0806 10.4125 14.0634 10.3316 14.0298C10.2507 13.9963 10.1772 13.9471 10.1153 13.8852L2.1133 5.8832C2.05131 5.82128 2.00214 5.74776 1.96859 5.66683C1.93504 5.58589 1.91777 5.49914 1.91777 5.41153C1.91777 5.32392 1.93504 5.23717 1.96859 5.15624C2.00214 5.07531 2.05131 5.00178 2.1133 4.93986H2.11263ZM1.53796 7.1932C1.66298 7.06822 1.83252 6.99801 2.0093 6.99801C2.18607 6.99801 2.35561 7.06822 2.48063 7.1932L8.8053 13.5179C8.92674 13.6436 8.99393 13.812 8.99241 13.9868C8.9909 14.1616 8.92078 14.3288 8.79718 14.4524C8.67357 14.576 8.50636 14.6461 8.33157 14.6476C8.15677 14.6492 7.98837 14.582 7.86263 14.4605L1.53796 8.13587C1.41298 8.01085 1.34277 7.84131 1.34277 7.66453C1.34277 7.48776 1.41298 7.31822 1.53796 7.1932ZM1.8713 10.3559C1.93321 10.2939 2.00674 10.2447 2.08767 10.2112C2.1686 10.1776 2.25535 10.1603 2.34296 10.1603C2.43057 10.1603 2.51733 10.1776 2.59826 10.2112C2.67919 10.2447 2.75272 10.2939 2.81463 10.3559L5.64263 13.1839C5.7063 13.2454 5.75709 13.3189 5.79203 13.4003C5.82697 13.4816 5.84536 13.5691 5.84613 13.6576C5.8469 13.7461 5.83003 13.8339 5.79651 13.9158C5.76299 13.9978 5.71349 14.0722 5.65089 14.1348C5.5883 14.1974 5.51386 14.2469 5.43193 14.2804C5.35 14.3139 5.26222 14.3308 5.1737 14.33C5.08518 14.3293 4.9977 14.3109 4.91636 14.2759C4.83503 14.241 4.76146 14.1902 4.69996 14.1265L1.87196 11.2985C1.74698 11.1735 1.67677 11.004 1.67677 10.8272C1.67677 10.6504 1.74698 10.4809 1.87196 10.3559H1.8713Z" />
</svg>
