<svg width="16" height="16" viewBox="0 0 16 16" fill="none" stroke="currentColor" xmlns="http://www.w3.org/2000/svg">
    <path d="M7.33325 11.6667V7.33333H7.66659L10.3333 11.3333H10.6666V7" stroke-width="1.25" stroke-linecap="round" stroke-linejoin="round"/>
    <path d="M3.00008 3.66778L4.66675 5.33445M12.7181 13.3818L5.03141 13.9731C4.91967 13.9816 4.80758 13.9619 4.70551 13.9156C4.60343 13.8693 4.51467 13.7981 4.44741 13.7084L2.80008 11.5124C2.71353 11.397 2.66675 11.2567 2.66675 11.1124V3.95178C2.66675 3.78386 2.73013 3.62212 2.8442 3.4989C2.95828 3.37568 3.11466 3.30004 3.28208 3.28711L10.8747 2.70311C11.1719 2.68036 11.4681 2.75781 11.7161 2.92311L12.7394 3.60511C12.9221 3.72683 13.0719 3.89178 13.1755 4.0853C13.2791 4.27882 13.3334 4.49493 13.3334 4.71445V12.7171C13.3334 12.885 13.27 13.0468 13.156 13.17C13.0419 13.2932 12.8855 13.3688 12.7181 13.3818Z" stroke-width="1.25" stroke-linecap="round" stroke-linejoin="round"/>
    <path d="M13.3334 4.66797L4.66675 5.33464V13.668" stroke-width="1.25" stroke-linecap="round" stroke-linejoin="round"/>
</svg>
