<svg width="16" height="16" viewBox="0 0 16 16" fill="none" xmlns="http://www.w3.org/2000/svg">
    <path d="M1.99994 11.999C1.99563 12.253 2.06662 12.5026 2.20394 12.7164C2.31807 12.8958 2.47348 13.0454 2.65718 13.1525C2.84088 13.2597 3.04755 13.3214 3.25994 13.3324C3.69061 13.3544 2.90194 13.3324 3.33327 13.3324H5.33327C5.33335 12.6045 5.09473 11.8968 4.65401 11.3176C4.21328 10.7384 3.59476 10.3197 2.89327 10.1257C3.26616 9.47726 3.7195 8.69259 4.25327 7.7717C5.36037 8.22032 6.30836 8.98918 6.97585 9.97983C7.64333 10.9705 7.99991 12.1378 7.99994 13.3324H12.6666C12.8841 13.3308 13.098 13.2761 13.2895 13.173C13.4811 13.0698 13.6444 12.9213 13.7654 12.7405C13.8864 12.5597 13.9613 12.3521 13.9836 12.1357C14.0059 11.9193 13.9749 11.7007 13.8933 11.499L9.15994 3.33237C9.04464 3.12397 8.87561 2.95025 8.67044 2.82929C8.46527 2.70833 8.23145 2.64453 7.99327 2.64453C7.7551 2.64453 7.52128 2.70833 7.31611 2.82929C7.11094 2.95025 6.94191 3.12397 6.82661 3.33237L5.59994 5.4497C8.58794 6.81637 10.6666 9.83037 10.6666 13.3324" stroke="currentColor" stroke-width="1.25" stroke-linecap="round" stroke-linejoin="round"/>
</svg>
