<svg width="16" height="16" viewBox="0 0 16 16" fill="currentColor" xmlns="http://www.w3.org/2000/svg">
    <path d="M3.99992 10C3.99992 10.3536 3.85944 10.6928 3.60939 10.9428C3.35935 11.1929 3.02021 11.3333 2.66659 11.3333C2.31296 11.3333 1.97382 11.1929 1.72378 10.9428C1.47373 10.6928 1.33325 10.3536 1.33325 10C1.33325 9.64638 1.47373 9.30724 1.72378 9.05719C1.97382 8.80714 2.31296 8.66667 2.66659 8.66667H3.99992V10ZM4.66659 10C4.66659 9.64638 4.80706 9.30724 5.05711 9.05719C5.30716 8.80714 5.6463 8.66667 5.99992 8.66667C6.35354 8.66667 6.69268 8.80714 6.94273 9.05719C7.19278 9.30724 7.33325 9.64638 7.33325 10V13.3333C7.33325 13.687 7.19278 14.0261 6.94273 14.2761C6.69268 14.5262 6.35354 14.6667 5.99992 14.6667C5.6463 14.6667 5.30716 14.5262 5.05711 14.2761C4.80706 14.0261 4.66659 13.687 4.66659 13.3333V10ZM5.99992 4.66667C5.6463 4.66667 5.30716 4.52619 5.05711 4.27614C4.80706 4.02609 4.66659 3.68696 4.66659 3.33333C4.66659 2.97971 4.80706 2.64057 5.05711 2.39052C5.30716 2.14048 5.6463 2 5.99992 2C6.35354 2 6.69268 2.14048 6.94273 2.39052C7.19278 2.64057 7.33325 2.97971 7.33325 3.33333V4.66667H5.99992ZM5.99992 5.33333C6.35354 5.33333 6.69268 5.47381 6.94273 5.72386C7.19278 5.97391 7.33325 6.31305 7.33325 6.66667C7.33325 7.02029 7.19278 7.35943 6.94273 7.60948C6.69268 7.85952 6.35354 8 5.99992 8H2.66659C2.31296 8 1.97382 7.85952 1.72378 7.60948C1.47373 7.35943 1.33325 7.02029 1.33325 6.66667C1.33325 6.31305 1.47373 5.97391 1.72378 5.72386C1.97382 5.47381 2.31296 5.33333 2.66659 5.33333H5.99992ZM11.3333 6.66667C11.3333 6.31305 11.4737 5.97391 11.7238 5.72386C11.9738 5.47381 12.313 5.33333 12.6666 5.33333C13.0202 5.33333 13.3593 5.47381 13.6094 5.72386C13.8594 5.97391 13.9999 6.31305 13.9999 6.66667C13.9999 7.02029 13.8594 7.35943 13.6094 7.60948C13.3593 7.85952 13.0202 8 12.6666 8H11.3333V6.66667ZM10.6666 6.66667C10.6666 7.02029 10.5261 7.35943 10.2761 7.60948C10.026 7.85952 9.68687 8 9.33325 8C8.97963 8 8.64049 7.85952 8.39044 7.60948C8.14039 7.35943 7.99992 7.02029 7.99992 6.66667V3.33333C7.99992 2.97971 8.14039 2.64057 8.39044 2.39052C8.64049 2.14048 8.97963 2 9.33325 2C9.68687 2 10.026 2.14048 10.2761 2.39052C10.5261 2.64057 10.6666 2.97971 10.6666 3.33333V6.66667ZM9.33325 12C9.68687 12 10.026 12.1405 10.2761 12.3905C10.5261 12.6406 10.6666 12.9797 10.6666 13.3333C10.6666 13.687 10.5261 14.0261 10.2761 14.2761C10.026 14.5262 9.68687 14.6667 9.33325 14.6667C8.97963 14.6667 8.64049 14.5262 8.39044 14.2761C8.14039 14.0261 7.99992 13.687 7.99992 13.3333V12H9.33325ZM9.33325 11.3333C8.97963 11.3333 8.64049 11.1929 8.39044 10.9428C8.14039 10.6928 7.99992 10.3536 7.99992 10C7.99992 9.64638 8.14039 9.30724 8.39044 9.05719C8.64049 8.80714 8.97963 8.66667 9.33325 8.66667H12.6666C13.0202 8.66667 13.3593 8.80714 13.6094 9.05719C13.8594 9.30724 13.9999 9.64638 13.9999 10C13.9999 10.3536 13.8594 10.6928 13.6094 10.9428C13.3593 11.1929 13.0202 11.3333 12.6666 11.3333H9.33325Z" />
</svg>
