<svg width="16" height="16" viewBox="0 0 16 16" fill="currentColor" xmlns="http://www.w3.org/2000/svg">
    <path d="M10.7733 3.92081C10.9385 3.77931 11.1317 3.69348 11.3295 3.65636C11.7344 3.58213 12.1696 3.71899 12.4559 4.05536C12.8841 4.55642 12.8236 5.30802 12.3232 5.73485L10.5545 7.23805L9.25589 6.77874L8.77182 6.60708L7.95728 6.31943L8.61589 5.76037L9.00687 5.42865L10.7756 3.92545L10.7733 3.92081Z" />
    <path d="M4.85498 12.0829C4.68975 12.2244 4.49658 12.3102 4.29877 12.3473C3.89382 12.4215 3.45862 12.2847 3.17237 11.9483C2.74415 11.4473 2.80466 10.6957 3.30502 10.2688L5.07375 8.76562L6.37236 9.22493L6.85643 9.3966L7.67097 9.68424L7.01236 10.2433L6.62138 10.575L4.85266 12.0782L4.85498 12.0829Z" />
    <path d="M5.74876 3.4069C5.63007 2.7597 6.05829 2.14032 6.70527 2.0197C7.35458 1.90139 7.97596 2.32822 8.09697 2.97311L8.51821 5.2511L7.46861 6.1442L6.17 5.68489L5.74876 3.4069Z" />
    <path d="M9.87955 12.5928C9.99824 13.24 9.57003 13.8594 8.92305 13.98C8.27374 14.0983 7.65236 13.6715 7.53134 13.0266L7.11011 10.7486L8.1597 9.85547L9.45832 10.3148L9.87955 12.5928Z" />
    <path d="M13.5636 10.0308C13.4147 10.446 13.0609 10.729 12.6537 10.8033C12.4535 10.8404 12.2441 10.8265 12.0393 10.7545L9.84932 9.97975L9.36525 9.80809L8.5507 9.52044L8.06663 9.34878L6.76802 8.88947L6.28395 8.71781L5.4694 8.43016L4.98533 8.2585L2.79538 7.48371C2.17399 7.26333 1.84818 6.58364 2.06927 5.96427C2.21821 5.54904 2.57196 5.26603 2.97923 5.1918C3.17937 5.15468 3.38883 5.1686 3.59363 5.24051L5.78358 6.01531L6.26766 6.18697L7.0822 6.47462L7.56627 6.64628L8.86488 7.10559L9.34896 7.27725L10.1635 7.5649L10.6476 7.73656L12.8375 8.51135C13.4589 8.73173 13.7847 9.41142 13.5636 10.0308Z" />
</svg>
