<svg width="16" height="16" viewBox="0 0 16 16" fill="none" xmlns="http://www.w3.org/2000/svg">
<path fill-rule="evenodd" clip-rule="evenodd" d="M7 3H3C1.89543 3 1 3.89543 1 5V11C1 12.1046 1.89543 13 3 13H11C12.1046 13 13 12.1046 13 11V9H12V11C12 11.5523 11.5523 12 11 12H3C2.44772 12 2 11.5523 2 11V5C2 4.44772 2.44772 4 3 4H7V3Z" fill="#CED0D6" style="fill:#CED0D6;fill:color(display-p3 0.8064 0.8176 0.8400);fill-opacity:1;"/>
<path fill-rule="evenodd" clip-rule="evenodd" d="M12.5 0C12.2239 0 12 0.223858 12 0.5V3H9.5C9.22386 3 9 3.22386 9 3.5C9 3.77614 9.22386 4 9.5 4H12V6.5C12 6.77614 12.2239 7 12.5 7C12.7761 7 13 6.77614 13 6.5V4H15.5C15.7761 4 16 3.77614 16 3.5C16 3.22386 15.7761 3 15.5 3H13V0.5C13 0.223858 12.7761 0 12.5 0Z" fill="#BFA1F8" style="fill:#BFA1F8;fill:color(display-p3 0.7490 0.6314 0.9725);fill-opacity:1;"/>
</svg>
