<svg width="16" height="16" viewBox="0 0 16 16" fill="none" xmlns="http://www.w3.org/2000/svg">
<path fill-rule="evenodd" clip-rule="evenodd" d="M15.1421 0.359375L1 14.5015L1.70711 15.2086L4.40649 12.5092C5.28369 13.0187 6.46126 13.4041 8.00003 13.4041C10.0981 13.4041 11.5247 12.6876 12.434 11.917C12.8812 11.5381 13.1921 11.1559 13.3947 10.8608C13.4962 10.713 13.5712 10.586 13.6233 10.4906C13.6494 10.4428 13.6698 10.4027 13.685 10.3717C13.6926 10.3562 13.6988 10.343 13.7039 10.3321L13.7105 10.3176L13.7131 10.3118L13.7143 10.3092L13.7148 10.308L13.7153 10.3069C13.9377 9.80133 13.7083 9.21122 13.2027 8.98879C12.7007 8.76787 12.1151 8.99276 11.8893 9.49113L11.8885 9.49265C11.8858 9.49827 11.8789 9.51193 11.8677 9.5325C11.8452 9.57376 11.8054 9.64208 11.746 9.72867C11.6267 9.90234 11.4313 10.1452 11.141 10.3912C10.5753 10.8707 9.60189 11.4041 8.00003 11.4041C7.12186 11.4041 6.43258 11.2438 5.89579 11.0199L10.092 6.82372C10.2505 7.16671 10.5976 7.40469 11.0002 7.40469C11.5525 7.40469 12.0002 6.95698 12.0002 6.40469V4.91548L15.8492 1.06648L15.1421 0.359375ZM11.8865 9.49737L11.8852 9.50029L11.8856 9.49926L11.8865 9.49737Z" fill="black"/>
<path d="M7.69713 5.48213C7.69913 5.4563 7.70015 5.4302 7.70015 5.40385C7.70015 4.85157 7.25244 4.40385 6.70015 4.40385H3.90015C3.34787 4.40385 2.90015 4.85157 2.90015 5.40385C2.90015 5.95614 3.34787 6.40385 3.90015 6.40385H6.70015C6.7265 6.40385 6.7526 6.40283 6.77844 6.40083L7.69713 5.48213Z" fill="black"/>
<path d="M3.94413 9.23545C3.66324 8.92282 3.20311 8.81031 2.79746 8.98879C2.29195 9.21122 2.06246 9.80133 2.28489 10.3069L2.28539 10.308L2.28592 10.3092L2.28706 10.3118L2.28969 10.3176L2.29632 10.3321C2.30136 10.343 2.30764 10.3562 2.31523 10.3717C2.33041 10.4027 2.35082 10.4428 2.3769 10.4906C2.40726 10.5462 2.44543 10.6126 2.49208 10.6875L3.94413 9.23545Z" fill="black"/>
</svg>
