<svg width="16" height="16" viewBox="0 0 16 16" fill="none" xmlns="http://www.w3.org/2000/svg">
<path fill-rule="evenodd" clip-rule="evenodd" d="M7.97616 0.164062C3.56555 0.164062 0 3.7559 0 8.19949C0 11.7515 2.28457 14.7582 5.45388 15.8223C5.85012 15.9023 5.99527 15.6494 5.99527 15.4367C5.99527 15.2504 5.9822 14.6119 5.9822 13.9466C3.76343 14.4256 3.30139 12.9887 3.30139 12.9887C2.94482 12.0575 2.41649 11.8181 2.41649 11.8181C1.69029 11.3259 2.46939 11.3259 2.46939 11.3259C3.27494 11.3791 3.69763 12.1507 3.69763 12.1507C4.41061 13.3745 5.55951 13.0287 6.02171 12.8158C6.08767 12.297 6.2991 11.9378 6.52359 11.7383C4.75396 11.552 2.89208 10.8602 2.89208 7.77369C2.89208 6.89565 3.20882 6.17729 3.71069 5.61859C3.63151 5.41908 3.35412 4.5941 3.79004 3.48994C3.79004 3.48994 4.46351 3.27704 5.98204 4.31476C6.63218 4.13886 7.30265 4.04939 7.97616 4.04863C8.64963 4.04863 9.33616 4.14186 9.97012 4.31476C11.4888 3.27704 12.1623 3.48994 12.1623 3.48994C12.5982 4.5941 12.3207 5.41908 12.2415 5.61859C12.7566 6.17729 13.0602 6.89565 13.0602 7.77369C13.0602 10.8602 11.1984 11.5386 9.41551 11.7383C9.70612 11.991 9.9569 12.4699 9.9569 13.2282C9.9569 14.3058 9.94384 15.1706 9.94384 15.4366C9.94384 15.6494 10.0891 15.9023 10.4852 15.8225C13.6545 14.758 15.9391 11.7515 15.9391 8.19949C15.9522 3.7559 12.3736 0.164062 7.97616 0.164062Z" fill="white"/>
</svg>
