<svg width="16" height="16" viewBox="0 0 16 16" xmlns="http://www.w3.org/2000/svg" fill="currentColor"><path fill-rule="evenodd" clip-rule="evenodd" d="M8.36354 4.30795C8.22214 4.21765 8.09042 4.11208 7.97087 3.99277C7.71396 3.73638 7.52035 3.42363 7.40543 3.07935L6.95343 1.69135C6.88113 1.48904 6.74761 1.31428 6.57143 1.19135C6.43877 1.09762 6.28607 1.03614 6.12548 1.01179C5.96489 0.987449 5.80083 1.00091 5.64636 1.05111C5.49188 1.1013 5.35125 1.18685 5.23564 1.30095C5.12004 1.41505 5.03265 1.55454 4.98043 1.70835L4.52343 3.10835C4.40884 3.44317 4.21967 3.74758 3.97022 3.9986C3.72076 4.24962 3.41753 4.44067 3.08343 4.55735L1.69243 5.00535C1.54065 5.05974 1.40352 5.14852 1.29177 5.26474C1.18001 5.38095 1.09666 5.52145 1.04824 5.67523C0.99982 5.82902 0.98764 5.99192 1.01265 6.1512C1.03767 6.31048 1.0992 6.46181 1.19243 6.59335C1.32027 6.7728 1.50105 6.90777 1.70943 6.97935L3.08343 7.42435C3.52354 7.57083 3.90999 7.84518 4.19343 8.21235C4.2323 8.26275 4.26904 8.31464 4.3036 8.36789L5.01746 7.65403C4.92233 7.52513 4.81777 7.40288 4.70443 7.28835C4.3356 6.92031 3.88653 6.64272 3.39243 6.47735L2.01443 5.95535L3.40043 5.50535C3.88672 5.33672 4.32775 5.05855 4.68943 4.69235C5.04901 4.32464 5.32049 3.88016 5.48343 3.39235L6.01043 2.01535L6.44943 3.39235C6.61312 3.8855 6.88991 4.33351 7.25767 4.70058C7.37754 4.82023 7.50599 4.93019 7.64179 5.0297L8.36354 4.30795ZM12.0003 14.9974C11.8337 14.9973 11.6713 14.9456 11.5353 14.8494C11.4001 14.7534 11.2981 14.6178 11.2433 14.4614L10.9903 13.6874C10.939 13.5283 10.8505 13.3836 10.7323 13.2654C10.6136 13.1471 10.4692 13.0578 10.3103 13.0044L9.54731 12.7574C9.38769 12.7051 9.24856 12.604 9.14963 12.4683C9.0507 12.3326 8.99699 12.1692 8.99611 12.0013C8.99522 11.8333 9.04721 11.6694 9.1447 11.5326C9.2422 11.3959 9.38025 11.2933 9.53931 11.2394L10.3123 10.9874C10.4667 10.9335 10.6066 10.8449 10.7213 10.7284C10.8375 10.6097 10.925 10.466 10.9773 10.3084L11.2243 9.54638C11.2636 9.42727 11.3304 9.31909 11.4192 9.23054C11.508 9.142 11.6164 9.07558 11.7357 9.03665C11.8549 8.99772 11.9816 8.98736 12.1056 9.00642C12.2295 9.02549 12.3473 9.07343 12.4493 9.14638C12.586 9.24191 12.6886 9.37853 12.7423 9.53638L12.9943 10.3094C13.0473 10.4674 13.1364 10.6109 13.2544 10.7285C13.3724 10.8462 13.5162 10.9348 13.6743 10.9874L14.4383 11.2364C14.5591 11.2739 14.6692 11.3396 14.7597 11.428C14.8501 11.5163 14.9184 11.6249 14.9588 11.7447C14.9992 11.8645 15.0106 11.9922 14.9921 12.1173C14.9736 12.2424 14.9257 12.3614 14.8523 12.4644C14.7557 12.6004 14.619 12.7029 14.4613 12.7574L13.6893 13.0094C13.5307 13.0611 13.3867 13.1498 13.2693 13.2684C13.1515 13.3869 13.0625 13.5309 13.0093 13.6894L12.7613 14.4514C12.7058 14.6129 12.6008 14.7529 12.4613 14.8514C12.3264 14.9464 12.1654 14.9974 12.0003 14.9974ZM10.4433 11.9974L10.6223 12.0564C10.9303 12.1583 11.2102 12.3309 11.4394 12.5605C11.6687 12.7901 11.8409 13.0702 11.9423 13.3784L12.0003 13.5594L12.0593 13.3784C12.1606 13.0707 12.3324 12.791 12.5611 12.5616C12.7898 12.3322 13.0689 12.1596 13.3763 12.0574L13.5563 11.9984L13.3613 11.9354C13.0545 11.8336 12.7757 11.6617 12.5471 11.4332C12.3185 11.2047 12.1463 10.9261 12.0443 10.6194L11.9853 10.4384L11.9273 10.6164C11.8248 10.9216 11.6537 11.1994 11.4273 11.4284C11.2027 11.6556 10.9291 11.8284 10.6273 11.9334L10.4433 11.9974Z" /><rect x="1" y="14.5" width="20" height="1" transform="rotate(-45 1 14.5)"/></svg>
